<?xml version="1.0" encoding="UTF-8" standalone="no"?>
<!-- Created with Inkscape (http://www.inkscape.org/) -->

<svg
   width="1080mm"
   height="1080mm"
   viewBox="0 0 1080 1080"
   version="1.1"
   id="svg5"
   inkscape:version="1.1.2 (0a00cf5339, 2022-02-04)"
   sodipodi:docname="Logo-FitBot.svg"
   inkscape:export-filename="/home/raul6174/Pictures/Logo-FitBot.png"
   inkscape:export-xdpi="96"
   inkscape:export-ydpi="96"
   xmlns:inkscape="http://www.inkscape.org/namespaces/inkscape"
   xmlns:sodipodi="http://sodipodi.sourceforge.net/DTD/sodipodi-0.dtd"
   xmlns="http://www.w3.org/2000/svg"
   xmlns:svg="http://www.w3.org/2000/svg">
  <sodipodi:namedview
     id="namedview7"
     pagecolor="#ffffff"
     bordercolor="#666666"
     borderopacity="1.0"
     inkscape:pageshadow="2"
     inkscape:pageopacity="0.0"
     inkscape:pagecheckerboard="0"
     inkscape:document-units="mm"
     showgrid="false"
     inkscape:zoom="0.25"
     inkscape:cx="4174"
     inkscape:cy="684"
     inkscape:window-width="1366"
     inkscape:window-height="700"
     inkscape:window-x="0"
     inkscape:window-y="0"
     inkscape:window-maximized="1"
     inkscape:current-layer="layer2"
     inkscape:snap-bbox="false"
     inkscape:snap-global="false" />
  <defs
     id="defs2">
    <inkscape:path-effect
       effect="bspline"
       id="path-effect7856"
       is_visible="true"
       lpeversion="1"
       weight="33.333333"
       steps="2"
       helper_size="0"
       apply_no_weight="true"
       apply_with_weight="true"
       only_selected="false" />
    <inkscape:path-effect
       effect="bspline"
       id="path-effect7848"
       is_visible="true"
       lpeversion="1"
       weight="33.333333"
       steps="2"
       helper_size="0"
       apply_no_weight="true"
       apply_with_weight="true"
       only_selected="false" />
    <inkscape:path-effect
       effect="bspline"
       id="path-effect4082"
       is_visible="true"
       lpeversion="1"
       weight="33.333333"
       steps="2"
       helper_size="0"
       apply_no_weight="true"
       apply_with_weight="true"
       only_selected="false" />
    <inkscape:path-effect
       effect="bspline"
       id="path-effect4076"
       is_visible="true"
       lpeversion="1"
       weight="33.333333"
       steps="2"
       helper_size="0"
       apply_no_weight="true"
       apply_with_weight="true"
       only_selected="false" />
    <inkscape:path-effect
       effect="bspline"
       id="path-effect4042"
       is_visible="true"
       lpeversion="1"
       weight="33.333333"
       steps="2"
       helper_size="0"
       apply_no_weight="true"
       apply_with_weight="true"
       only_selected="false" />
    <inkscape:path-effect
       effect="bspline"
       id="path-effect3796"
       is_visible="true"
       lpeversion="1"
       weight="33.333333"
       steps="2"
       helper_size="0"
       apply_no_weight="true"
       apply_with_weight="true"
       only_selected="false" />
    <inkscape:path-effect
       effect="bspline"
       id="path-effect3438"
       is_visible="true"
       lpeversion="1"
       weight="33.333333"
       steps="2"
       helper_size="0"
       apply_no_weight="true"
       apply_with_weight="true"
       only_selected="false" />
    <inkscape:path-effect
       effect="bspline"
       id="path-effect3352"
       is_visible="true"
       lpeversion="1"
       weight="33.333333"
       steps="2"
       helper_size="0"
       apply_no_weight="true"
       apply_with_weight="true"
       only_selected="false" />
    <rect
       x="8899.1336"
       y="495.90628"
       width="1845.3112"
       height="478.70162"
       id="rect3995" />
    <linearGradient
       id="linearGradient4419"
       inkscape:swatch="solid">
      <stop
         style="stop-color:#008000;stop-opacity:1;"
         offset="0"
         id="stop4417" />
    </linearGradient>
  </defs>
  <g
     inkscape:label="Layer 1"
     inkscape:groupmode="layer"
     id="layer1" />
  <g
     inkscape:groupmode="layer"
     id="layer2"
     inkscape:label="Logo">
    <rect
       style="fill:#299345;fill-opacity:1;fill-rule:evenodd;stroke:#59ff00;stroke-width:0;stroke-miterlimit:4;stroke-dasharray:none;stroke-opacity:1"
       id="rect4134"
       width="471.42548"
       height="378.59497"
       x="273.70972"
       y="446.22491"
       ry="60.717335"
       rx="61.771675"
       inkscape:export-filename="/home/raul6174/Pictures/FitBot-Saying.png"
       inkscape:export-xdpi="96"
       inkscape:export-ydpi="96" />
    <path
       id="rect1185"
       style="fill:#ffffff;fill-opacity:1;fill-rule:evenodd;stroke:#299345;stroke-width:9.07098;stroke-linejoin:round;stroke-miterlimit:4;stroke-dasharray:none;stroke-opacity:1"
       d="m 291.1352,399.39473 c -41.95895,0 -75.73832,33.77938 -75.73832,75.73833 v 320.77913 c 0,41.95892 33.77937,75.73785 75.73832,75.73785 h 436.57498 c 41.95895,0 75.73787,-33.77893 75.73787,-75.73785 V 475.13306 c 0,-41.95895 -33.77892,-75.73833 -75.73787,-75.73833 z m 54.18163,57.53371 h 328.21172 c 32.28653,0 58.27903,25.54888 58.27903,57.28432 v 242.61971 c 0,31.73543 -25.9925,57.28386 -58.27903,57.28386 H 345.31683 c -32.28651,0 -58.27904,-25.54843 -58.27904,-57.28386 V 514.21276 c 0,-31.73544 25.99253,-57.28432 58.27904,-57.28432 z" />
    <rect
       style="fill:#299345;fill-opacity:1;fill-rule:evenodd;stroke:#ffffff;stroke-width:18.142;stroke-miterlimit:4;stroke-dasharray:none;stroke-opacity:1"
       id="rect1376"
       width="371.37051"
       height="199.52469"
       x="323.73737"
       y="275.34985"
       ry="31.998859" />
    <rect
       style="fill:#ffffff;fill-opacity:1;fill-rule:evenodd;stroke-width:0.0788577"
       id="rect1436"
       width="110.00232"
       height="31.138395"
       x="454.42148"
       y="359.543"
       ry="15.569198" />
    <rect
       style="fill:#ffffff;fill-opacity:1;fill-rule:evenodd;stroke-width:0.0788577"
       id="rect1482"
       width="110.00232"
       height="31.138395"
       x="320.11102"
       y="-524.99188"
       ry="15.569198"
       transform="rotate(90)" />
    <rect
       style="fill:#666666;fill-rule:evenodd;stroke:#000000;stroke-width:6.38247;stroke-linejoin:round;stroke-miterlimit:4;stroke-dasharray:none;stroke-opacity:1"
       id="rect831"
       width="413.76083"
       height="332.28534"
       x="1538.6971"
       y="248.92064"
       ry="53.290409"
       inkscape:export-filename="/home/raul6174/Pictures/FitBot-Saying.png"
       inkscape:export-xdpi="96"
       inkscape:export-ydpi="96" />
    <rect
       style="fill:#000000;fill-rule:evenodd;stroke:#59ff00;stroke-width:6.38247;stroke-miterlimit:4;stroke-dasharray:none;stroke-opacity:1"
       id="rect833"
       width="312.94595"
       height="251.32237"
       x="1589.1046"
       y="289.40213"
       ry="40.305935"
       rx="41.005836"
       inkscape:export-filename="/home/raul6174/Pictures/FitBot-Saying.png"
       inkscape:export-xdpi="96"
       inkscape:export-ydpi="96" />
    <rect
       style="fill:#ffffff;fill-rule:evenodd;stroke:#000000;stroke-width:6.38247;stroke-miterlimit:4;stroke-dasharray:none;stroke-opacity:1"
       id="rect835"
       width="261.30136"
       height="140.38829"
       x="1614.9269"
       y="161.64093"
       ry="22.514833"
       inkscape:export-filename="/home/raul6174/Pictures/FitBot-Saying.png"
       inkscape:export-xdpi="96"
       inkscape:export-ydpi="96" />
    <rect
       style="fill:#ff0000;fill-rule:evenodd;stroke-width:0.0554853"
       id="rect837"
       width="77.399132"
       height="21.909399"
       x="1706.8779"
       y="220.88037"
       ry="10.9547"
       inkscape:export-filename="/home/raul6174/Pictures/FitBot-Saying.png"
       inkscape:export-xdpi="96"
       inkscape:export-ydpi="96" />
    <rect
       style="fill:#ff0000;fill-rule:evenodd;stroke-width:0.0554853"
       id="rect839"
       width="77.399132"
       height="21.909399"
       x="193.1355"
       y="-1756.5323"
       ry="10.9547"
       transform="rotate(90)"
       inkscape:export-filename="/home/raul6174/Pictures/FitBot-Saying.png"
       inkscape:export-xdpi="96"
       inkscape:export-ydpi="96" />
    <path
       id="rect841"
       style="fill:#59ff00;fill-opacity:1;fill-rule:evenodd;stroke:#59ff00;stroke-width:1.27649;stroke-linecap:round;stroke-linejoin:round;stroke-miterlimit:4;stroke-dasharray:none;stroke-opacity:1;paint-order:normal"
       d="m 1682.2797,346.77235 c -14.7046,0 -26.5425,15.37068 -26.5425,34.46322 v 59.81178 c 0,-19.09253 11.8379,-34.46289 26.5425,-34.46289 h 0.024 c 14.7046,0 26.5428,15.37036 26.5428,34.46289 v -59.81178 c 0,-19.09254 -11.8382,-34.46322 -26.5428,-34.46322 z"
       inkscape:export-filename="/home/raul6174/Pictures/FitBot-Saying.png"
       inkscape:export-xdpi="96"
       inkscape:export-ydpi="96" />
    <path
       id="rect843"
       style="fill:#59ff00;fill-opacity:1;fill-rule:evenodd;stroke:#59ff00;stroke-width:1.27649;stroke-linecap:round;stroke-linejoin:round;stroke-miterlimit:4;stroke-dasharray:none;stroke-opacity:1"
       d="m 1808.8517,349.8872 c -14.7047,0 -26.5429,15.37068 -26.5429,34.46321 v 59.81213 c 0,-19.09255 11.8382,-34.46323 26.5429,-34.46323 h 0.024 c 14.7046,0 26.5425,15.37068 26.5425,34.46323 v -59.81213 c 0,-19.09253 -11.8379,-34.46321 -26.5425,-34.46321 z"
       inkscape:export-filename="/home/raul6174/Pictures/FitBot-Saying.png"
       inkscape:export-xdpi="96"
       inkscape:export-ydpi="96" />
    <path
       id="rect1414"
       style="fill:#f9f9f9;fill-rule:evenodd;stroke:#000000;stroke-width:1.27649;stroke-miterlimit:4;stroke-dasharray:none;stroke-opacity:1"
       d="m 2026.9218,68.264186 c -14.7046,0 -26.5425,15.370693 -26.5425,34.463214 v 93.89042 c 0,2.08768 0.1495,4.1272 0.4208,6.11064 v 10.70936 l 0.01,75.38834 47.6294,-53.87695 3.42,-3.8685 h 346.7281 c 14.7049,0 26.5429,-15.37036 26.5429,-34.46289 V 102.7274 c 0,-19.092521 -11.838,-34.463214 -26.5429,-34.463214 z"
       inkscape:export-filename="/home/raul6174/Pictures/FitBot-Saying.png"
       inkscape:export-xdpi="96"
       inkscape:export-ydpi="96" />
    <text
       xml:space="preserve"
       transform="matrix(0.4026998,0,0,0.4026998,-1531.5157,-66.526912)"
       id="text3993"
       style="font-style:normal;font-variant:normal;font-weight:normal;font-stretch:normal;font-size:64px;line-height:1.25;font-family:'Noto Sans Mono';-inkscape-font-specification:'Noto Sans Mono, Normal';font-variant-ligatures:normal;font-variant-caps:normal;font-variant-numeric:normal;font-variant-east-asian:normal;white-space:pre;shape-inside:url(#rect3995)"
       inkscape:export-filename="/home/raul6174/Pictures/FitBot-Saying.png"
       inkscape:export-xdpi="96"
       inkscape:export-ydpi="96"><tspan
         x="8899.1328"
         y="554.13826"
         id="tspan10174">Jangan lupa olahraga!</tspan></text>
    <path
       id="path3780"
       style="fill:#299345;fill-opacity:1;fill-rule:evenodd;stroke:#299345;stroke-width:10;stroke-linejoin:round;stroke-miterlimit:4;stroke-dasharray:none;stroke-opacity:1"
       d="m 2340.9343,441.70232 c -46.2562,0 -83.4951,37.23894 -83.4951,83.49517 v 353.63216 c 0,46.2562 37.2389,83.49464 83.4951,83.49464 h 481.2874 c 46.2563,0 83.4947,-37.23844 83.4947,-83.49464 V 525.19749 c 0,-46.25623 -37.2384,-83.49517 -83.4947,-83.49517 z m 59.7308,63.4261 h 361.8259 c 35.5932,0 64.2478,28.1655 64.2478,63.15117 v 267.46793 c 0,34.98566 -28.6546,63.15067 -64.2478,63.15067 h -361.8259 c -35.5932,0 -64.2478,-28.16501 -64.2478,-63.15067 V 568.27959 c 0,-34.98567 28.6546,-63.15117 64.2478,-63.15117 z" />
    <rect
       style="fill:#ffffff;fill-rule:evenodd;stroke:#299345;stroke-width:20;stroke-miterlimit:4;stroke-dasharray:none;stroke-opacity:1"
       id="rect3782"
       width="409.40494"
       height="219.95927"
       x="2376.8755"
       y="304.95325"
       ry="35.276066" />
    <rect
       style="fill:#299345;fill-opacity:1;fill-rule:evenodd;stroke-width:0.086934"
       id="rect3784"
       width="121.26836"
       height="34.327477"
       x="2520.9438"
       y="397.76913"
       ry="17.163738" />
    <rect
       style="fill:#299345;fill-opacity:1;fill-rule:evenodd;stroke-width:0.086934"
       id="rect3786"
       width="121.26836"
       height="34.327477"
       x="354.29868"
       y="-2598.7417"
       ry="17.163738"
       transform="rotate(90)" />
    <rect
       style="fill:#299345;fill-opacity:1;fill-rule:evenodd;stroke-width:0.264583"
       id="rect3788"
       width="83.211052"
       height="209.11485"
       x="2440.8167"
       y="595.01581"
       rx="41.586872"
       ry="53.996445" />
    <rect
       style="fill:#299345;fill-opacity:1;fill-rule:evenodd;stroke-width:0.264583"
       id="rect3790"
       width="83.211052"
       height="209.11485"
       x="2639.1282"
       y="599.8963"
       rx="41.586872"
       ry="53.996445" />
    <path
       id="path4064"
       style="fill:#299345;fill-opacity:1;fill-rule:evenodd;stroke:#299345;stroke-width:10;stroke-linejoin:round;stroke-miterlimit:4;stroke-dasharray:none;stroke-opacity:1"
       d="m 1635.8529,851.09892 c -46.2563,0 -83.4952,37.23894 -83.4952,83.49517 v 353.63221 c 0,46.2562 37.2389,83.4946 83.4952,83.4946 h 481.2874 c 46.2562,0 83.4946,-37.2384 83.4946,-83.4946 V 934.59409 c 0,-46.25623 -37.2384,-83.49517 -83.4946,-83.49517 z m 59.7307,63.4261 h 361.8259 c 35.5932,0 64.2478,28.1655 64.2478,63.15117 v 267.46791 c 0,34.9857 -28.6546,63.1507 -64.2478,63.1507 h -361.8259 c -35.5932,0 -64.2478,-28.165 -64.2478,-63.1507 V 977.67619 c 0,-34.98567 28.6546,-63.15117 64.2478,-63.15117 z" />
    <rect
       style="fill:#ffffff;fill-rule:evenodd;stroke:#299345;stroke-width:20;stroke-miterlimit:4;stroke-dasharray:none;stroke-opacity:1"
       id="rect4066"
       width="409.40494"
       height="219.95927"
       x="1671.7941"
       y="714.34985"
       ry="35.276066" />
    <rect
       style="fill:#299345;fill-opacity:1;fill-rule:evenodd;stroke-width:0.086934"
       id="rect4068"
       width="121.26836"
       height="34.327477"
       x="1815.8623"
       y="807.16571"
       ry="17.163738" />
    <rect
       style="fill:#299345;fill-opacity:1;fill-rule:evenodd;stroke-width:0.086934"
       id="rect4070"
       width="121.26836"
       height="34.327477"
       x="763.69525"
       y="-1893.6603"
       ry="17.163738"
       transform="rotate(90)" />
    <path
       style="fill:none;stroke:#299345;stroke-width:16.428;stroke-linecap:butt;stroke-linejoin:miter;stroke-miterlimit:4;stroke-dasharray:none;stroke-opacity:1"
       d="m 1740.6978,1148.3367 c 0,-47.0298 0,-94.0598 13.8689,-117.5748 13.8689,-23.5151 41.6054,-23.5151 55.4738,5e-4 13.8684,23.5155 13.8684,70.5445 13.8684,117.5743"
       id="path4072"
       inkscape:original-d="m 1740.6978,1148.3367 c 0,-47.0298 0,-94.0598 0,-141.0899 27.7378,0 55.4743,0 83.2111,0 0,47.0311 0,94.0601 0,141.0899"
       inkscape:path-effect="#path-effect4076" />
    <path
       style="fill:none;stroke:#299345;stroke-width:16.428;stroke-linecap:butt;stroke-linejoin:miter;stroke-miterlimit:4;stroke-dasharray:none;stroke-opacity:1"
       d="m 1929.0837,1152.2825 c 0,-47.0298 0,-94.0598 13.8689,-117.5749 13.8689,-23.5151 41.6054,-23.5151 55.4738,5e-4 13.8684,23.5155 13.8684,70.5446 13.8684,117.5744"
       id="path4078"
       inkscape:original-d="m 1929.0837,1152.2825 c 0,-47.0298 0,-94.0598 0,-141.09 27.7378,0 55.4743,0 83.2111,0 0,47.0311 0,94.0602 0,141.09"
       inkscape:path-effect="#path-effect4082" />
    <rect
       style="fill:#000000;fill-rule:evenodd;stroke:#59ff00;stroke-width:6.38247;stroke-miterlimit:4;stroke-dasharray:none;stroke-opacity:1"
       id="rect4086"
       width="312.94595"
       height="251.32237"
       x="1589.1046"
       y="289.40213"
       ry="40.305935"
       rx="41.005836"
       inkscape:export-filename="/home/raul6174/Pictures/FitBot-Saying.png"
       inkscape:export-xdpi="96"
       inkscape:export-ydpi="96" />
    <rect
       style="fill:#ffffff;fill-rule:evenodd;stroke:#000000;stroke-width:6.38247;stroke-miterlimit:4;stroke-dasharray:none;stroke-opacity:1"
       id="rect4088"
       width="261.30136"
       height="140.38829"
       x="1614.9269"
       y="161.64093"
       ry="22.514833"
       inkscape:export-filename="/home/raul6174/Pictures/FitBot-Saying.png"
       inkscape:export-xdpi="96"
       inkscape:export-ydpi="96" />
    <rect
       style="fill:#ff0000;fill-rule:evenodd;stroke-width:0.0554853"
       id="rect4090"
       width="77.399132"
       height="21.909399"
       x="1706.8779"
       y="220.88037"
       ry="10.9547"
       inkscape:export-filename="/home/raul6174/Pictures/FitBot-Saying.png"
       inkscape:export-xdpi="96"
       inkscape:export-ydpi="96" />
    <rect
       style="fill:#ff0000;fill-rule:evenodd;stroke-width:0.0554853"
       id="rect4092"
       width="77.399132"
       height="21.909399"
       x="193.1355"
       y="-1756.5323"
       ry="10.9547"
       transform="rotate(90)"
       inkscape:export-filename="/home/raul6174/Pictures/FitBot-Saying.png"
       inkscape:export-xdpi="96"
       inkscape:export-ydpi="96" />
    <path
       id="path4094"
       style="fill:#59ff00;fill-opacity:1;fill-rule:evenodd;stroke:#59ff00;stroke-width:1.27649;stroke-linecap:round;stroke-linejoin:round;stroke-miterlimit:4;stroke-dasharray:none;stroke-opacity:1;paint-order:normal"
       d="m 1682.2797,346.77235 c -14.7046,0 -26.5425,15.37068 -26.5425,34.46322 v 59.81178 c 0,-19.09253 11.8379,-34.46289 26.5425,-34.46289 h 0.024 c 14.7046,0 26.5428,15.37036 26.5428,34.46289 v -59.81178 c 0,-19.09254 -11.8382,-34.46322 -26.5428,-34.46322 z"
       inkscape:export-filename="/home/raul6174/Pictures/FitBot-Saying.png"
       inkscape:export-xdpi="96"
       inkscape:export-ydpi="96" />
    <path
       id="path4096"
       style="fill:#59ff00;fill-opacity:1;fill-rule:evenodd;stroke:#59ff00;stroke-width:1.27649;stroke-linecap:round;stroke-linejoin:round;stroke-miterlimit:4;stroke-dasharray:none;stroke-opacity:1"
       d="m 1808.8517,349.8872 c -14.7047,0 -26.5429,15.37068 -26.5429,34.46321 v 59.81213 c 0,-19.09255 11.8382,-34.46323 26.5429,-34.46323 h 0.024 c 14.7046,0 26.5425,15.37068 26.5425,34.46323 v -59.81213 c 0,-19.09253 -11.8379,-34.46321 -26.5425,-34.46321 z"
       inkscape:export-filename="/home/raul6174/Pictures/FitBot-Saying.png"
       inkscape:export-xdpi="96"
       inkscape:export-ydpi="96" />
    <path
       id="rect6830"
       style="fill:#299345;fill-opacity:1;fill-rule:evenodd;stroke:#299345;stroke-width:1.39052;stroke-opacity:1"
       d="m 458.75712,-276.35548 c -17.93726,-0.15044 -35.87523,6.88898 -49.08319,20.93524 l -18.0238,19.168 -22.8722,-21.50834 c -26.44002,-24.86204 -67.39861,-23.27412 -91.8343,3.56044 -24.43569,26.83454 -22.82169,68.45193 3.61834,93.31397 0,0 85.63832,76.167057 96.39915,78.656917 23.24047,6.66415 129.58922,-84.975027 129.58922,-84.975027 24.86204,-26.44002 23.27412,-67.39662 -3.56043,-91.8323 -12.5787,-11.45423 -28.40578,-17.18615 -44.23279,-17.3189 z"
       sodipodi:nodetypes="scccscccss" />
    <path
       id="path7522"
       style="fill:#299345;fill-opacity:1;fill-rule:evenodd;stroke:#ffffff;stroke-width:18.9897;stroke-miterlimit:4;stroke-dasharray:none;stroke-opacity:1"
       d="m 1362.9745,439.77444 c -17.0312,-0.14284 -34.063,6.54099 -46.6038,19.87771 l -17.1133,18.19971 -21.7168,-20.42184 c -25.1044,-23.60613 -63.994,-22.09842 -87.1953,3.38058 -23.2013,25.47899 -21.6688,64.99406 3.4356,88.60019 0,0 81.3123,72.31946 91.5295,74.68355 22.0665,6.32751 123.043,-80.6825 123.043,-80.6825 23.6061,-25.10439 22.0984,-63.99206 -3.3806,-87.19336 -11.9433,-10.87562 -26.9708,-16.31799 -41.9983,-16.44404 z"
       sodipodi:nodetypes="scccscccss" />
    <rect
       style="fill:#299345;fill-opacity:1;fill-rule:evenodd;stroke:#59ff00;stroke-width:0;stroke-miterlimit:4;stroke-dasharray:none;stroke-opacity:1"
       id="rect7834"
       width="519.70715"
       height="417.36929"
       x="-862.18982"
       y="436.4964"
       ry="66.935783"
       rx="68.098106"
       inkscape:export-filename="/home/raul6174/Pictures/FitBot-Saying.png"
       inkscape:export-xdpi="96"
       inkscape:export-ydpi="96" />
    <path
       id="path7836"
       style="fill:#ffffff;fill-opacity:1;fill-rule:evenodd;stroke:#299345;stroke-width:10;stroke-linejoin:round;stroke-miterlimit:4;stroke-dasharray:none;stroke-opacity:1"
       d="m -842.97977,383.2722 c -46.25623,0 -83.49516,37.23894 -83.49516,83.49517 v 353.63216 c 0,46.2562 37.23893,83.49464 83.49516,83.49464 h 481.2874 c 46.25623,0 83.49466,-37.23844 83.49466,-83.49464 V 466.76737 c 0,-46.25623 -37.23843,-83.49517 -83.49466,-83.49517 z m 59.73072,63.4261 h 361.82596 c 35.5932,0 64.24776,28.1655 64.24776,63.15117 V 777.3174 c 0,34.98566 -28.65456,63.15067 -64.24776,63.15067 h -361.82596 c -35.59318,0 -64.24777,-28.16501 -64.24777,-63.15067 V 509.84947 c 0,-34.98567 28.65459,-63.15117 64.24777,-63.15117 z" />
    <rect
       style="fill:#299345;fill-opacity:1;fill-rule:evenodd;stroke:#ffffff;stroke-width:20;stroke-miterlimit:4;stroke-dasharray:none;stroke-opacity:1"
       id="rect7838"
       width="409.40494"
       height="219.95927"
       x="-807.03864"
       y="246.5231"
       ry="35.276066" />
    <rect
       style="fill:#ffffff;fill-opacity:1;fill-rule:evenodd;stroke-width:0.086934"
       id="rect7840"
       width="121.26836"
       height="34.327477"
       x="-662.97034"
       y="339.33902"
       ry="17.163738" />
    <rect
       style="fill:#ffffff;fill-opacity:1;fill-rule:evenodd;stroke-width:0.086934"
       id="rect7842"
       width="121.26836"
       height="34.327477"
       x="295.86856"
       y="585.1723"
       ry="17.163738"
       transform="rotate(90)" />
    <path
       style="fill:none;fill-opacity:1;stroke:#ffffff;stroke-width:16.428;stroke-linecap:butt;stroke-linejoin:miter;stroke-miterlimit:4;stroke-dasharray:none;stroke-opacity:1"
       d="m -738.1348,680.50998 c 0,-47.02979 0,-94.05977 13.8689,-117.57484 13.8689,-23.51508 41.6054,-23.51508 55.4738,4.6e-4 13.8684,23.51554 13.8684,70.54459 13.8684,117.57438"
       id="path7844"
       inkscape:original-d="m -738.1348,680.50998 c 0,-47.02979 0,-94.05977 0,-141.08992 27.7378,0 55.4743,0 83.2111,0 0,47.03108 0,94.06013 0,141.08992"
       inkscape:path-effect="#path-effect7848" />
    <rect
       style="fill:#ffff00;fill-opacity:1;fill-rule:evenodd;stroke-width:0.264583"
       id="rect7850"
       width="83.211052"
       height="209.11485"
       x="-736.52802"
       y="535.55627"
       rx="41.586872"
       ry="53.996445" />
    <path
       style="fill:none;fill-opacity:1;stroke:#ffffff;stroke-width:16.428;stroke-linecap:butt;stroke-linejoin:miter;stroke-miterlimit:4;stroke-dasharray:none;stroke-opacity:1"
       d="m -549.74893,684.45574 c 0,-47.02979 0,-94.05977 13.8689,-117.57485 13.8689,-23.51507 41.6054,-23.51507 55.4738,4.7e-4 13.8684,23.51554 13.8684,70.54459 13.8684,117.57438"
       id="path7852"
       inkscape:original-d="m -549.74893,684.45574 c 0,-47.02979 0,-94.05977 0,-141.08992 27.7378,0 55.4743,0 83.2111,0 0,47.03108 0,94.06013 0,141.08992"
       inkscape:path-effect="#path-effect7856" />
    <rect
       style="fill:#ffff00;fill-opacity:1;fill-rule:evenodd;stroke-width:0.264583"
       id="rect7858"
       width="83.211052"
       height="209.11485"
       x="-547.65338"
       y="528.61304"
       rx="41.586872"
       ry="53.996445" />
    <rect
       style="fill:#ffffff;fill-opacity:1;fill-rule:evenodd;stroke-width:0.240003"
       id="rect8406"
       width="75.480606"
       height="189.68773"
       x="403.53894"
       y="510.36496"
       rx="37.723381"
       ry="48.980083" />
    <rect
       style="fill:#ffffff;fill-opacity:1;fill-rule:evenodd;stroke-width:0.240003"
       id="rect8408"
       width="75.480606"
       height="189.68773"
       x="583.427"
       y="514.79205"
       rx="37.723381"
       ry="48.980083" />
    <rect
       style="fill:#bec8b7;fill-rule:evenodd;stroke-width:0.264583;fill-opacity:1"
       id="rect8732"
       width="703.5379"
       height="703.5379"
       x="-1476.9763"
       y="-467.5517"
       rx="41.586945"
       ry="53.996429" />
    <path
       id="path8708"
       style="fill:#299345;fill-opacity:1;fill-rule:evenodd;stroke:#ffffff;stroke-width:23.1545;stroke-linejoin:round;stroke-miterlimit:4;stroke-dasharray:none;stroke-opacity:1;paint-order:stroke fill markers"
       d="m 803.13653,217.61828 a 77.619216,77.619216 0 0 0 -100.81112,43.40654 77.619216,77.619216 0 0 0 8.29158,72.83881 l -18.48447,46.36907 c -4.19195,10.51576 0.89903,22.35624 11.41481,26.54822 l 41.82084,16.67135 c 10.51582,4.19196 22.35633,-0.89902 26.54824,-11.41477 l 18.48469,-46.36971 a 77.619216,77.619216 0 0 0 56.13885,-47.18792 l -72.10137,-28.74229 72.12495,28.68309 a 77.619216,77.619216 0 0 0 -43.427,-100.80239 z m -101.85878,193.0393 c -2.22683,-0.88773 -4.7343,0.19024 -5.62195,2.41707 -0.88771,2.2268 0.19044,4.73431 2.41726,5.62201 l 43.07087,17.16966 c 2.22682,0.88772 4.73441,-0.19046 5.62208,-2.41727 0.88762,-2.22685 -0.19055,-4.7341 -2.4174,-5.62181 z m -1.97801,13.07604 c -1.71794,-0.68491 -3.65229,0.14684 -4.33713,1.8648 l -2.48205,6.22635 c -0.68491,1.71793 0.14685,3.65227 1.8648,4.33711 l 37.48857,14.94435 c 1.71792,0.6849 3.65255,-0.14678 4.33739,-1.86472 l 2.48205,-6.22636 c 0.68481,-1.71795 -0.1471,-3.65235 -1.86505,-4.33721 z" />
    <rect
       style="fill:#ffffff;fill-opacity:1;fill-rule:evenodd;stroke-width:0.264583"
       id="rect9368"
       width="9.123539"
       height="30.841331"
       x="496.72513"
       y="535.13312"
       ry="4.5617695"
       inkscape:transform-center-x="54.534188"
       inkscape:transform-center-y="-90.873911"
       transform="rotate(-32.15048)" />
    <rect
       style="fill:#ffffff;fill-opacity:1;fill-rule:evenodd;stroke-width:0.264583"
       id="rect9751"
       width="9.123539"
       height="30.841331"
       x="771.95355"
       y="162.38977"
       ry="4.5617695"
       inkscape:transform-center-x="-3.0739874"
       inkscape:transform-center-y="-105.93675"
       transform="rotate(0.47991046)" />
    <rect
       style="fill:#ffffff;fill-opacity:1;fill-rule:evenodd;stroke-width:0.264583"
       id="rect9753"
       width="9.123539"
       height="30.841331"
       x="775.31073"
       y="-395.81439"
       ry="4.5617695"
       inkscape:transform-center-x="-69.844661"
       inkscape:transform-center-y="-79.710566"
       transform="rotate(40.043595)" />
    <rect
       style="fill:#ffffff;fill-opacity:1;fill-rule:evenodd;stroke-width:0.264583"
       id="rect9755"
       width="9.123539"
       height="30.841331"
       x="505.16367"
       y="-771.39038"
       ry="4.5617695"
       inkscape:transform-center-x="-101.77594"
       inkscape:transform-center-y="-29.558606"
       transform="rotate(72.623055)" />
  </g>
</svg>
