<?xml version="1.0" encoding="UTF-8" standalone="no"?>
<!-- Created with Inkscape (http://www.inkscape.org/) -->

<svg
   width="1080mm"
   height="1080mm"
   viewBox="0 0 1080 1080"
   version="1.1"
   id="svg5"
   inkscape:version="1.1.2 (0a00cf5339, 2022-02-04)"
   sodipodi:docname="Logo-FitBot.svg"
   inkscape:export-filename="/home/raul6174/Pictures/Logo-FitBot.png"
   inkscape:export-xdpi="96"
   inkscape:export-ydpi="96"
   xmlns:inkscape="http://www.inkscape.org/namespaces/inkscape"
   xmlns:sodipodi="http://sodipodi.sourceforge.net/DTD/sodipodi-0.dtd"
   xmlns="http://www.w3.org/2000/svg"
   xmlns:svg="http://www.w3.org/2000/svg">
  <sodipodi:namedview
     id="namedview7"
     pagecolor="#ffffff"
     bordercolor="#666666"
     borderopacity="1.0"
     inkscape:pageshadow="2"
     inkscape:pageopacity="0.0"
     inkscape:pagecheckerboard="0"
     inkscape:document-units="mm"
     showgrid="false"
     inkscape:zoom="0.125"
     inkscape:cx="2580"
     inkscape:cy="1672"
     inkscape:window-width="1366"
     inkscape:window-height="700"
     inkscape:window-x="0"
     inkscape:window-y="0"
     inkscape:window-maximized="1"
     inkscape:current-layer="layer2" />
  <defs
     id="defs2">
    <inkscape:path-effect
       effect="bspline"
       id="path-effect4082"
       is_visible="true"
       lpeversion="1"
       weight="33.333333"
       steps="2"
       helper_size="0"
       apply_no_weight="true"
       apply_with_weight="true"
       only_selected="false" />
    <inkscape:path-effect
       effect="bspline"
       id="path-effect4076"
       is_visible="true"
       lpeversion="1"
       weight="33.333333"
       steps="2"
       helper_size="0"
       apply_no_weight="true"
       apply_with_weight="true"
       only_selected="false" />
    <inkscape:path-effect
       effect="bspline"
       id="path-effect4042"
       is_visible="true"
       lpeversion="1"
       weight="33.333333"
       steps="2"
       helper_size="0"
       apply_no_weight="true"
       apply_with_weight="true"
       only_selected="false" />
    <inkscape:path-effect
       effect="bspline"
       id="path-effect3796"
       is_visible="true"
       lpeversion="1"
       weight="33.333333"
       steps="2"
       helper_size="0"
       apply_no_weight="true"
       apply_with_weight="true"
       only_selected="false" />
    <inkscape:path-effect
       effect="bspline"
       id="path-effect3438"
       is_visible="true"
       lpeversion="1"
       weight="33.333333"
       steps="2"
       helper_size="0"
       apply_no_weight="true"
       apply_with_weight="true"
       only_selected="false" />
    <inkscape:path-effect
       effect="bspline"
       id="path-effect3352"
       is_visible="true"
       lpeversion="1"
       weight="33.333333"
       steps="2"
       helper_size="0"
       apply_no_weight="true"
       apply_with_weight="true"
       only_selected="false" />
    <rect
       x="8899.1336"
       y="495.90628"
       width="1845.3112"
       height="478.70162"
       id="rect3995" />
    <linearGradient
       id="linearGradient4419"
       inkscape:swatch="solid">
      <stop
         style="stop-color:#008000;stop-opacity:1;"
         offset="0"
         id="stop4417" />
    </linearGradient>
  </defs>
  <g
     inkscape:label="Layer 1"
     inkscape:groupmode="layer"
     id="layer1" />
  <g
     inkscape:groupmode="layer"
     id="layer2"
     inkscape:label="Logo">
    <rect
       style="fill:#299345;fill-rule:evenodd;stroke:#59ff00;stroke-width:0;stroke-miterlimit:4;stroke-dasharray:none;stroke-opacity:1;fill-opacity:1"
       id="rect4134"
       width="519.70715"
       height="417.36929"
       x="280.14648"
       y="403.78775"
       ry="66.935783"
       rx="68.098106"
       inkscape:export-filename="/home/raul6174/Pictures/FitBot-Saying.png"
       inkscape:export-xdpi="96"
       inkscape:export-ydpi="96" />
    <path
       id="rect1185"
       style="fill:#ffffff;fill-opacity:1;fill-rule:evenodd;stroke:#299345;stroke-width:10;stroke-linejoin:round;stroke-miterlimit:4;stroke-dasharray:none;stroke-opacity:1"
       d="m 299.35655,350.56356 c -46.25623,0 -83.49516,37.23894 -83.49516,83.49517 v 353.63216 c 0,46.2562 37.23893,83.49464 83.49516,83.49464 h 481.2874 c 46.25623,0 83.49466,-37.23844 83.49466,-83.49464 V 434.05873 c 0,-46.25623 -37.23843,-83.49517 -83.49466,-83.49517 z m 59.73072,63.4261 h 361.82596 c 35.5932,0 64.24776,28.1655 64.24776,63.15117 v 267.46793 c 0,34.98566 -28.65456,63.15067 -64.24776,63.15067 H 359.08727 c -35.59318,0 -64.24777,-28.16501 -64.24777,-63.15067 V 477.14083 c 0,-34.98567 28.65459,-63.15117 64.24777,-63.15117 z" />
    <rect
       style="fill:#299345;fill-rule:evenodd;stroke:#ffffff;stroke-width:20;stroke-miterlimit:4;stroke-dasharray:none;stroke-opacity:1;fill-opacity:1"
       id="rect1376"
       width="409.40494"
       height="219.95927"
       x="335.2977"
       y="213.81447"
       ry="35.276066" />
    <rect
       style="fill:#ffffff;fill-opacity:1;fill-rule:evenodd;stroke-width:0.086934"
       id="rect1436"
       width="121.26836"
       height="34.327477"
       x="479.366"
       y="306.63037"
       ry="17.163738" />
    <rect
       style="fill:#ffffff;fill-opacity:1;fill-rule:evenodd;stroke-width:0.086934"
       id="rect1482"
       width="121.26836"
       height="34.327477"
       x="263.15991"
       y="-557.164"
       ry="17.163738"
       transform="rotate(90)" />
    <rect
       style="fill:#666666;fill-rule:evenodd;stroke:#000000;stroke-width:6.38247;stroke-linejoin:round;stroke-miterlimit:4;stroke-dasharray:none;stroke-opacity:1"
       id="rect831"
       width="413.76083"
       height="332.28534"
       x="1538.6971"
       y="248.92064"
       ry="53.290409"
       inkscape:export-filename="/home/raul6174/Pictures/FitBot-Saying.png"
       inkscape:export-xdpi="96"
       inkscape:export-ydpi="96" />
    <rect
       style="fill:#000000;fill-rule:evenodd;stroke:#59ff00;stroke-width:6.38247;stroke-miterlimit:4;stroke-dasharray:none;stroke-opacity:1"
       id="rect833"
       width="312.94595"
       height="251.32237"
       x="1589.1046"
       y="289.40213"
       ry="40.305935"
       rx="41.005836"
       inkscape:export-filename="/home/raul6174/Pictures/FitBot-Saying.png"
       inkscape:export-xdpi="96"
       inkscape:export-ydpi="96" />
    <rect
       style="fill:#ffffff;fill-rule:evenodd;stroke:#000000;stroke-width:6.38247;stroke-miterlimit:4;stroke-dasharray:none;stroke-opacity:1"
       id="rect835"
       width="261.30136"
       height="140.38829"
       x="1614.9269"
       y="161.64093"
       ry="22.514833"
       inkscape:export-filename="/home/raul6174/Pictures/FitBot-Saying.png"
       inkscape:export-xdpi="96"
       inkscape:export-ydpi="96" />
    <rect
       style="fill:#ff0000;fill-rule:evenodd;stroke-width:0.0554853"
       id="rect837"
       width="77.399132"
       height="21.909399"
       x="1706.8779"
       y="220.88037"
       ry="10.9547"
       inkscape:export-filename="/home/raul6174/Pictures/FitBot-Saying.png"
       inkscape:export-xdpi="96"
       inkscape:export-ydpi="96" />
    <rect
       style="fill:#ff0000;fill-rule:evenodd;stroke-width:0.0554853"
       id="rect839"
       width="77.399132"
       height="21.909399"
       x="193.1355"
       y="-1756.5323"
       ry="10.9547"
       transform="rotate(90)"
       inkscape:export-filename="/home/raul6174/Pictures/FitBot-Saying.png"
       inkscape:export-xdpi="96"
       inkscape:export-ydpi="96" />
    <path
       id="rect841"
       style="fill:#59ff00;fill-opacity:1;fill-rule:evenodd;stroke:#59ff00;stroke-width:1.27649;stroke-linecap:round;stroke-linejoin:round;stroke-miterlimit:4;stroke-dasharray:none;stroke-opacity:1;paint-order:normal"
       d="m 1682.2797,346.77235 c -14.7046,0 -26.5425,15.37068 -26.5425,34.46322 v 59.81178 c 0,-19.09253 11.8379,-34.46289 26.5425,-34.46289 h 0.024 c 14.7046,0 26.5428,15.37036 26.5428,34.46289 v -59.81178 c 0,-19.09254 -11.8382,-34.46322 -26.5428,-34.46322 z"
       inkscape:export-filename="/home/raul6174/Pictures/FitBot-Saying.png"
       inkscape:export-xdpi="96"
       inkscape:export-ydpi="96" />
    <path
       id="rect843"
       style="fill:#59ff00;fill-opacity:1;fill-rule:evenodd;stroke:#59ff00;stroke-width:1.27649;stroke-linecap:round;stroke-linejoin:round;stroke-miterlimit:4;stroke-dasharray:none;stroke-opacity:1"
       d="m 1808.8517,349.8872 c -14.7047,0 -26.5429,15.37068 -26.5429,34.46321 v 59.81213 c 0,-19.09255 11.8382,-34.46323 26.5429,-34.46323 h 0.024 c 14.7046,0 26.5425,15.37068 26.5425,34.46323 v -59.81213 c 0,-19.09253 -11.8379,-34.46321 -26.5425,-34.46321 z"
       inkscape:export-filename="/home/raul6174/Pictures/FitBot-Saying.png"
       inkscape:export-xdpi="96"
       inkscape:export-ydpi="96" />
    <path
       id="rect1414"
       style="fill:#f9f9f9;fill-rule:evenodd;stroke:#000000;stroke-width:1.27649;stroke-miterlimit:4;stroke-dasharray:none;stroke-opacity:1"
       d="m 2026.9218,68.264186 c -14.7046,0 -26.5425,15.370693 -26.5425,34.463214 v 93.89042 c 0,2.08768 0.1495,4.1272 0.4208,6.11064 v 10.70936 l 0.01,75.38834 47.6294,-53.87695 3.42,-3.8685 h 346.7281 c 14.7049,0 26.5429,-15.37036 26.5429,-34.46289 V 102.7274 c 0,-19.092521 -11.838,-34.463214 -26.5429,-34.463214 z"
       inkscape:export-filename="/home/raul6174/Pictures/FitBot-Saying.png"
       inkscape:export-xdpi="96"
       inkscape:export-ydpi="96" />
    <text
       xml:space="preserve"
       transform="matrix(0.4026998,0,0,0.4026998,-1531.5157,-66.526912)"
       id="text3993"
       style="font-style:normal;font-variant:normal;font-weight:normal;font-stretch:normal;font-size:64px;line-height:1.25;font-family:'Noto Sans Mono';-inkscape-font-specification:'Noto Sans Mono, Normal';font-variant-ligatures:normal;font-variant-caps:normal;font-variant-numeric:normal;font-variant-east-asian:normal;white-space:pre;shape-inside:url(#rect3995)"
       inkscape:export-filename="/home/raul6174/Pictures/FitBot-Saying.png"
       inkscape:export-xdpi="96"
       inkscape:export-ydpi="96"><tspan
         x="8899.1328"
         y="554.13826"
         id="tspan6055">Jangan lupa olahraga!</tspan></text>
    <rect
       style="fill:#299345;fill-opacity:1;fill-rule:evenodd;stroke-width:0.264583"
       id="rect3216"
       width="83.211052"
       height="209.11485"
       x="1429.1245"
       y="702.84741"
       rx="41.586872"
       ry="53.996445" />
    <path
       style="fill:none;stroke:#ffffff;stroke-width:16.428;stroke-linecap:butt;stroke-linejoin:miter;stroke-miterlimit:4;stroke-dasharray:none;stroke-opacity:1;fill-opacity:1"
       d="m 404.20152,647.80134 c 0,-47.02979 0,-94.05977 13.8689,-117.57485 13.8689,-23.51507 41.6054,-23.51507 55.4738,4.7e-4 13.8684,23.51554 13.8684,70.54459 13.8684,117.57438"
       id="path3350"
       inkscape:original-d="m 404.20152,647.80134 c 0,-47.02979 0,-94.05977 0,-141.08992 27.7378,0 55.4743,0 83.2111,0 0,47.03108 0,94.06013 0,141.08992"
       inkscape:path-effect="#path-effect3352" />
    <path
       id="path3780"
       style="fill:#299345;fill-opacity:1;fill-rule:evenodd;stroke:#299345;stroke-width:10;stroke-linejoin:round;stroke-miterlimit:4;stroke-dasharray:none;stroke-opacity:1"
       d="m 2340.9343,441.70232 c -46.2562,0 -83.4951,37.23894 -83.4951,83.49517 v 353.63216 c 0,46.2562 37.2389,83.49464 83.4951,83.49464 h 481.2874 c 46.2563,0 83.4947,-37.23844 83.4947,-83.49464 V 525.19749 c 0,-46.25623 -37.2384,-83.49517 -83.4947,-83.49517 z m 59.7308,63.4261 h 361.8259 c 35.5932,0 64.2478,28.1655 64.2478,63.15117 v 267.46793 c 0,34.98566 -28.6546,63.15067 -64.2478,63.15067 h -361.8259 c -35.5932,0 -64.2478,-28.16501 -64.2478,-63.15067 V 568.27959 c 0,-34.98567 28.6546,-63.15117 64.2478,-63.15117 z" />
    <rect
       style="fill:#ffffff;fill-rule:evenodd;stroke:#299345;stroke-width:20;stroke-miterlimit:4;stroke-dasharray:none;stroke-opacity:1"
       id="rect3782"
       width="409.40494"
       height="219.95927"
       x="2376.8755"
       y="304.95325"
       ry="35.276066" />
    <rect
       style="fill:#299345;fill-opacity:1;fill-rule:evenodd;stroke-width:0.086934"
       id="rect3784"
       width="121.26836"
       height="34.327477"
       x="2520.9438"
       y="397.76913"
       ry="17.163738" />
    <rect
       style="fill:#299345;fill-opacity:1;fill-rule:evenodd;stroke-width:0.086934"
       id="rect3786"
       width="121.26836"
       height="34.327477"
       x="354.29868"
       y="-2598.7417"
       ry="17.163738"
       transform="rotate(90)" />
    <rect
       style="fill:#299345;fill-opacity:1;fill-rule:evenodd;stroke-width:0.264583"
       id="rect3788"
       width="83.211052"
       height="209.11485"
       x="2440.8167"
       y="595.01581"
       rx="41.586872"
       ry="53.996445" />
    <rect
       style="fill:#299345;fill-opacity:1;fill-rule:evenodd;stroke-width:0.264583"
       id="rect3790"
       width="83.211052"
       height="209.11485"
       x="2639.1282"
       y="599.8963"
       rx="41.586872"
       ry="53.996445" />
    <path
       style="fill:none;stroke:#ffffff;stroke-width:16.428;stroke-linecap:butt;stroke-linejoin:miter;stroke-miterlimit:4;stroke-dasharray:none;stroke-opacity:1;fill-opacity:1"
       d="m 592.58739,651.7471 c 0,-47.02979 0,-94.05977 13.8689,-117.57484 13.8689,-23.51508 41.6054,-23.51508 55.4738,4.6e-4 13.8684,23.51554 13.8684,70.54459 13.8684,117.57438"
       id="path4038"
       inkscape:original-d="m 592.58739,651.7471 c 0,-47.02979 0,-94.05977 0,-141.08992 27.7378,0 55.4743,0 83.2111,0 0,47.03108 0,94.06013 0,141.08992"
       inkscape:path-effect="#path-effect4042" />
    <path
       id="path4064"
       style="fill:#299345;fill-opacity:1;fill-rule:evenodd;stroke:#299345;stroke-width:10;stroke-linejoin:round;stroke-miterlimit:4;stroke-dasharray:none;stroke-opacity:1"
       d="m 1635.8529,851.09892 c -46.2563,0 -83.4952,37.23894 -83.4952,83.49517 v 353.63221 c 0,46.2562 37.2389,83.4946 83.4952,83.4946 h 481.2874 c 46.2562,0 83.4946,-37.2384 83.4946,-83.4946 V 934.59409 c 0,-46.25623 -37.2384,-83.49517 -83.4946,-83.49517 z m 59.7307,63.4261 h 361.8259 c 35.5932,0 64.2478,28.1655 64.2478,63.15117 v 267.46791 c 0,34.9857 -28.6546,63.1507 -64.2478,63.1507 h -361.8259 c -35.5932,0 -64.2478,-28.165 -64.2478,-63.1507 V 977.67619 c 0,-34.98567 28.6546,-63.15117 64.2478,-63.15117 z" />
    <rect
       style="fill:#ffffff;fill-rule:evenodd;stroke:#299345;stroke-width:20;stroke-miterlimit:4;stroke-dasharray:none;stroke-opacity:1"
       id="rect4066"
       width="409.40494"
       height="219.95927"
       x="1671.7941"
       y="714.34985"
       ry="35.276066" />
    <rect
       style="fill:#299345;fill-opacity:1;fill-rule:evenodd;stroke-width:0.086934"
       id="rect4068"
       width="121.26836"
       height="34.327477"
       x="1815.8623"
       y="807.16571"
       ry="17.163738" />
    <rect
       style="fill:#299345;fill-opacity:1;fill-rule:evenodd;stroke-width:0.086934"
       id="rect4070"
       width="121.26836"
       height="34.327477"
       x="763.69525"
       y="-1893.6603"
       ry="17.163738"
       transform="rotate(90)" />
    <path
       style="fill:none;stroke:#299345;stroke-width:16.428;stroke-linecap:butt;stroke-linejoin:miter;stroke-miterlimit:4;stroke-dasharray:none;stroke-opacity:1"
       d="m 1740.6978,1148.3367 c 0,-47.0298 0,-94.0598 13.8689,-117.5748 13.8689,-23.5151 41.6054,-23.5151 55.4738,5e-4 13.8684,23.5155 13.8684,70.5445 13.8684,117.5743"
       id="path4072"
       inkscape:original-d="m 1740.6978,1148.3367 c 0,-47.0298 0,-94.0598 0,-141.0899 27.7378,0 55.4743,0 83.2111,0 0,47.0311 0,94.0601 0,141.0899"
       inkscape:path-effect="#path-effect4076" />
    <path
       style="fill:none;stroke:#299345;stroke-width:16.428;stroke-linecap:butt;stroke-linejoin:miter;stroke-miterlimit:4;stroke-dasharray:none;stroke-opacity:1"
       d="m 1929.0837,1152.2825 c 0,-47.0298 0,-94.0598 13.8689,-117.5749 13.8689,-23.5151 41.6054,-23.5151 55.4738,5e-4 13.8684,23.5155 13.8684,70.5446 13.8684,117.5744"
       id="path4078"
       inkscape:original-d="m 1929.0837,1152.2825 c 0,-47.0298 0,-94.0598 0,-141.09 27.7378,0 55.4743,0 83.2111,0 0,47.0311 0,94.0602 0,141.09"
       inkscape:path-effect="#path-effect4082" />
    <rect
       style="fill:#000000;fill-rule:evenodd;stroke:#59ff00;stroke-width:6.38247;stroke-miterlimit:4;stroke-dasharray:none;stroke-opacity:1"
       id="rect4086"
       width="312.94595"
       height="251.32237"
       x="1589.1046"
       y="289.40213"
       ry="40.305935"
       rx="41.005836"
       inkscape:export-filename="/home/raul6174/Pictures/FitBot-Saying.png"
       inkscape:export-xdpi="96"
       inkscape:export-ydpi="96" />
    <rect
       style="fill:#ffffff;fill-rule:evenodd;stroke:#000000;stroke-width:6.38247;stroke-miterlimit:4;stroke-dasharray:none;stroke-opacity:1"
       id="rect4088"
       width="261.30136"
       height="140.38829"
       x="1614.9269"
       y="161.64093"
       ry="22.514833"
       inkscape:export-filename="/home/raul6174/Pictures/FitBot-Saying.png"
       inkscape:export-xdpi="96"
       inkscape:export-ydpi="96" />
    <rect
       style="fill:#ff0000;fill-rule:evenodd;stroke-width:0.0554853"
       id="rect4090"
       width="77.399132"
       height="21.909399"
       x="1706.8779"
       y="220.88037"
       ry="10.9547"
       inkscape:export-filename="/home/raul6174/Pictures/FitBot-Saying.png"
       inkscape:export-xdpi="96"
       inkscape:export-ydpi="96" />
    <rect
       style="fill:#ff0000;fill-rule:evenodd;stroke-width:0.0554853"
       id="rect4092"
       width="77.399132"
       height="21.909399"
       x="193.1355"
       y="-1756.5323"
       ry="10.9547"
       transform="rotate(90)"
       inkscape:export-filename="/home/raul6174/Pictures/FitBot-Saying.png"
       inkscape:export-xdpi="96"
       inkscape:export-ydpi="96" />
    <path
       id="path4094"
       style="fill:#59ff00;fill-opacity:1;fill-rule:evenodd;stroke:#59ff00;stroke-width:1.27649;stroke-linecap:round;stroke-linejoin:round;stroke-miterlimit:4;stroke-dasharray:none;stroke-opacity:1;paint-order:normal"
       d="m 1682.2797,346.77235 c -14.7046,0 -26.5425,15.37068 -26.5425,34.46322 v 59.81178 c 0,-19.09253 11.8379,-34.46289 26.5425,-34.46289 h 0.024 c 14.7046,0 26.5428,15.37036 26.5428,34.46289 v -59.81178 c 0,-19.09254 -11.8382,-34.46322 -26.5428,-34.46322 z"
       inkscape:export-filename="/home/raul6174/Pictures/FitBot-Saying.png"
       inkscape:export-xdpi="96"
       inkscape:export-ydpi="96" />
    <path
       id="path4096"
       style="fill:#59ff00;fill-opacity:1;fill-rule:evenodd;stroke:#59ff00;stroke-width:1.27649;stroke-linecap:round;stroke-linejoin:round;stroke-miterlimit:4;stroke-dasharray:none;stroke-opacity:1"
       d="m 1808.8517,349.8872 c -14.7047,0 -26.5429,15.37068 -26.5429,34.46321 v 59.81213 c 0,-19.09255 11.8382,-34.46323 26.5429,-34.46323 h 0.024 c 14.7046,0 26.5425,15.37068 26.5425,34.46323 v -59.81213 c 0,-19.09253 -11.8379,-34.46321 -26.5425,-34.46321 z"
       inkscape:export-filename="/home/raul6174/Pictures/FitBot-Saying.png"
       inkscape:export-xdpi="96"
       inkscape:export-ydpi="96" />
  </g>
</svg>
