<?xml version="1.0" encoding="UTF-8" standalone="no"?>
<!-- Created with Inkscape (http://www.inkscape.org/) -->

<svg
   width="1225mm"
   height="1080mm"
   viewBox="0 0 1225 1080"
   version="1.1"
   id="svg5"
   inkscape:version="1.1.2 (0a00cf5339, 2022-02-04)"
   sodipodi:docname="Logo-FitBot.svg"
   inkscape:export-filename="/home/raul6174/Pictures/Logo-FitBot.png"
   inkscape:export-xdpi="96"
   inkscape:export-ydpi="96"
   xmlns:inkscape="http://www.inkscape.org/namespaces/inkscape"
   xmlns:sodipodi="http://sodipodi.sourceforge.net/DTD/sodipodi-0.dtd"
   xmlns="http://www.w3.org/2000/svg"
   xmlns:svg="http://www.w3.org/2000/svg">
  <sodipodi:namedview
     id="namedview7"
     pagecolor="#ffffff"
     bordercolor="#666666"
     borderopacity="1.0"
     inkscape:pageshadow="2"
     inkscape:pageopacity="0.0"
     inkscape:pagecheckerboard="0"
     inkscape:document-units="mm"
     showgrid="false"
     inkscape:zoom="0.088388348"
     inkscape:cx="5639.8837"
     inkscape:cy="2613.4667"
     inkscape:window-width="1366"
     inkscape:window-height="700"
     inkscape:window-x="0"
     inkscape:window-y="0"
     inkscape:window-maximized="1"
     inkscape:current-layer="layer2"
     inkscape:snap-bbox="false"
     inkscape:snap-global="false" />
  <defs
     id="defs2">
    <inkscape:path-effect
       effect="bspline"
       id="path-effect7856"
       is_visible="true"
       lpeversion="1"
       weight="33.333333"
       steps="2"
       helper_size="0"
       apply_no_weight="true"
       apply_with_weight="true"
       only_selected="false" />
    <inkscape:path-effect
       effect="bspline"
       id="path-effect7848"
       is_visible="true"
       lpeversion="1"
       weight="33.333333"
       steps="2"
       helper_size="0"
       apply_no_weight="true"
       apply_with_weight="true"
       only_selected="false" />
    <inkscape:path-effect
       effect="bspline"
       id="path-effect4082"
       is_visible="true"
       lpeversion="1"
       weight="33.333333"
       steps="2"
       helper_size="0"
       apply_no_weight="true"
       apply_with_weight="true"
       only_selected="false" />
    <inkscape:path-effect
       effect="bspline"
       id="path-effect4076"
       is_visible="true"
       lpeversion="1"
       weight="33.333333"
       steps="2"
       helper_size="0"
       apply_no_weight="true"
       apply_with_weight="true"
       only_selected="false" />
    <inkscape:path-effect
       effect="bspline"
       id="path-effect4042"
       is_visible="true"
       lpeversion="1"
       weight="33.333333"
       steps="2"
       helper_size="0"
       apply_no_weight="true"
       apply_with_weight="true"
       only_selected="false" />
    <inkscape:path-effect
       effect="bspline"
       id="path-effect3796"
       is_visible="true"
       lpeversion="1"
       weight="33.333333"
       steps="2"
       helper_size="0"
       apply_no_weight="true"
       apply_with_weight="true"
       only_selected="false" />
    <inkscape:path-effect
       effect="bspline"
       id="path-effect3438"
       is_visible="true"
       lpeversion="1"
       weight="33.333333"
       steps="2"
       helper_size="0"
       apply_no_weight="true"
       apply_with_weight="true"
       only_selected="false" />
    <inkscape:path-effect
       effect="bspline"
       id="path-effect3352"
       is_visible="true"
       lpeversion="1"
       weight="33.333333"
       steps="2"
       helper_size="0"
       apply_no_weight="true"
       apply_with_weight="true"
       only_selected="false" />
    <rect
       x="8899.1338"
       y="495.90628"
       width="1845.3112"
       height="478.70163"
       id="rect3995" />
    <linearGradient
       id="linearGradient4419"
       inkscape:swatch="solid">
      <stop
         style="stop-color:#008000;stop-opacity:1;"
         offset="0"
         id="stop4417" />
    </linearGradient>
  </defs>
  <g
     inkscape:label="Layer 1"
     inkscape:groupmode="layer"
     id="layer1" />
  <g
     inkscape:groupmode="layer"
     id="layer2"
     inkscape:label="Logo">
    <rect
       style="fill:#299345;fill-opacity:1;fill-rule:evenodd;stroke:#59ff00;stroke-width:0;stroke-miterlimit:4;stroke-dasharray:none;stroke-opacity:1"
       id="rect4134"
       width="471.42548"
       height="378.59497"
       x="-866.591"
       y="1340.0299"
       ry="60.717335"
       rx="61.771675"
       inkscape:export-filename="/home/raul6174/Pictures/FitBot-Saying.png"
       inkscape:export-xdpi="96"
       inkscape:export-ydpi="96" />
    <path
       id="rect1185"
       style="fill:#ffffff;fill-opacity:1;fill-rule:evenodd;stroke:#299345;stroke-width:9.07098;stroke-linejoin:round;stroke-miterlimit:4;stroke-dasharray:none;stroke-opacity:1"
       d="m -849.16553,1293.1997 c -41.95895,0 -75.73832,33.7794 -75.73832,75.7383 v 320.7792 c 0,41.9589 33.77937,75.7378 75.73832,75.7378 h 436.57498 c 41.95895,0 75.73787,-33.7789 75.73787,-75.7378 V 1368.938 c 0,-41.9589 -33.77892,-75.7383 -75.73787,-75.7383 z m 54.18163,57.5337 h 328.21172 c 32.28653,0 58.27903,25.5489 58.27903,57.2843 v 242.6197 c 0,31.7355 -25.9925,57.2839 -58.27903,57.2839 H -794.9839 c -32.28651,0 -58.27904,-25.5484 -58.27904,-57.2839 v -242.6197 c 0,-31.7354 25.99253,-57.2843 58.27904,-57.2843 z" />
    <rect
       style="fill:#299345;fill-opacity:1;fill-rule:evenodd;stroke:#ffffff;stroke-width:18.142;stroke-miterlimit:4;stroke-dasharray:none;stroke-opacity:1"
       id="rect1376"
       width="371.37051"
       height="199.52469"
       x="-816.56335"
       y="1169.1548"
       ry="31.998859" />
    <rect
       style="fill:#ffffff;fill-opacity:1;fill-rule:evenodd;stroke-width:0.0788577"
       id="rect1436"
       width="110.00232"
       height="31.138395"
       x="-685.87927"
       y="1253.348"
       ry="15.569198" />
    <rect
       style="fill:#ffffff;fill-opacity:1;fill-rule:evenodd;stroke-width:0.0788577"
       id="rect1482"
       width="110.00232"
       height="31.138395"
       x="1213.916"
       y="615.30884"
       ry="15.569198"
       transform="rotate(90)" />
    <rect
       style="fill:#666666;fill-rule:evenodd;stroke:#000000;stroke-width:6.38247;stroke-linejoin:round;stroke-miterlimit:4;stroke-dasharray:none;stroke-opacity:1"
       id="rect831"
       width="413.76083"
       height="332.28534"
       x="1538.6971"
       y="248.92064"
       ry="53.290409"
       inkscape:export-filename="/home/raul6174/Pictures/FitBot-Saying.png"
       inkscape:export-xdpi="96"
       inkscape:export-ydpi="96" />
    <rect
       style="fill:#000000;fill-rule:evenodd;stroke:#59ff00;stroke-width:6.38247;stroke-miterlimit:4;stroke-dasharray:none;stroke-opacity:1"
       id="rect833"
       width="312.94595"
       height="251.32237"
       x="1589.1046"
       y="289.40213"
       ry="40.305935"
       rx="41.005836"
       inkscape:export-filename="/home/raul6174/Pictures/FitBot-Saying.png"
       inkscape:export-xdpi="96"
       inkscape:export-ydpi="96" />
    <rect
       style="fill:#ffffff;fill-rule:evenodd;stroke:#000000;stroke-width:6.38247;stroke-miterlimit:4;stroke-dasharray:none;stroke-opacity:1"
       id="rect835"
       width="261.30136"
       height="140.38829"
       x="1614.9269"
       y="161.64093"
       ry="22.514833"
       inkscape:export-filename="/home/raul6174/Pictures/FitBot-Saying.png"
       inkscape:export-xdpi="96"
       inkscape:export-ydpi="96" />
    <rect
       style="fill:#ff0000;fill-rule:evenodd;stroke-width:0.0554853"
       id="rect837"
       width="77.399132"
       height="21.909399"
       x="1706.8779"
       y="220.88037"
       ry="10.9547"
       inkscape:export-filename="/home/raul6174/Pictures/FitBot-Saying.png"
       inkscape:export-xdpi="96"
       inkscape:export-ydpi="96" />
    <rect
       style="fill:#ff0000;fill-rule:evenodd;stroke-width:0.0554853"
       id="rect839"
       width="77.399132"
       height="21.909399"
       x="193.1355"
       y="-1756.5323"
       ry="10.9547"
       transform="rotate(90)"
       inkscape:export-filename="/home/raul6174/Pictures/FitBot-Saying.png"
       inkscape:export-xdpi="96"
       inkscape:export-ydpi="96" />
    <path
       id="rect841"
       style="fill:#59ff00;fill-opacity:1;fill-rule:evenodd;stroke:#59ff00;stroke-width:1.27649;stroke-linecap:round;stroke-linejoin:round;stroke-miterlimit:4;stroke-dasharray:none;stroke-opacity:1;paint-order:normal"
       d="m 1682.2797,346.77235 c -14.7046,0 -26.5425,15.37068 -26.5425,34.46322 v 59.81178 c 0,-19.09253 11.8379,-34.46289 26.5425,-34.46289 h 0.024 c 14.7046,0 26.5428,15.37036 26.5428,34.46289 v -59.81178 c 0,-19.09254 -11.8382,-34.46322 -26.5428,-34.46322 z"
       inkscape:export-filename="/home/raul6174/Pictures/FitBot-Saying.png"
       inkscape:export-xdpi="96"
       inkscape:export-ydpi="96" />
    <path
       id="rect843"
       style="fill:#59ff00;fill-opacity:1;fill-rule:evenodd;stroke:#59ff00;stroke-width:1.27649;stroke-linecap:round;stroke-linejoin:round;stroke-miterlimit:4;stroke-dasharray:none;stroke-opacity:1"
       d="m 1808.8517,349.8872 c -14.7047,0 -26.5429,15.37068 -26.5429,34.46321 v 59.81213 c 0,-19.09255 11.8382,-34.46323 26.5429,-34.46323 h 0.024 c 14.7046,0 26.5425,15.37068 26.5425,34.46323 v -59.81213 c 0,-19.09253 -11.8379,-34.46321 -26.5425,-34.46321 z"
       inkscape:export-filename="/home/raul6174/Pictures/FitBot-Saying.png"
       inkscape:export-xdpi="96"
       inkscape:export-ydpi="96" />
    <path
       id="rect1414"
       style="fill:#f9f9f9;fill-rule:evenodd;stroke:#000000;stroke-width:1.69138;stroke-miterlimit:4;stroke-dasharray:none;stroke-opacity:1"
       d="m 643.5581,156.82888 c -19.48404,0 -35.16962,20.36663 -35.16962,45.6648 v 124.40769 c 0,2.76624 0.19809,5.46867 0.55757,8.09678 v 14.19023 l 0.0132,99.89185 63.11041,-71.3886 4.53161,-5.12587 h 459.42523 c 19.4845,0 35.1702,-20.3662 35.1702,-45.66439 V 202.49368 c 0,-25.29817 -15.6857,-45.6648 -35.1702,-45.6648 z"
       inkscape:export-filename="/home/raul6174/Pictures/FitBot-Saying.png"
       inkscape:export-xdpi="96"
       inkscape:export-ydpi="96" />
    <text
       xml:space="preserve"
       transform="matrix(0.53358955,0,0,0.53358955,-4071.4804,-21.773453)"
       id="text3993"
       style="font-style:normal;font-variant:normal;font-weight:normal;font-stretch:normal;font-size:64px;line-height:1.25;font-family:'Noto Sans Mono';-inkscape-font-specification:'Noto Sans Mono, Normal';font-variant-ligatures:normal;font-variant-caps:normal;font-variant-numeric:normal;font-variant-east-asian:normal;white-space:pre;shape-inside:url(#rect3995)"
       inkscape:export-filename="/home/raul6174/Pictures/FitBot-Saying.png"
       inkscape:export-xdpi="96"
       inkscape:export-ydpi="96"><tspan
         x="8899.1328"
         y="554.13826"
         id="tspan10505">Jangan lupa olahraga!</tspan></text>
    <path
       id="path3780"
       style="fill:#299345;fill-opacity:1;fill-rule:evenodd;stroke:#299345;stroke-width:10;stroke-linejoin:round;stroke-miterlimit:4;stroke-dasharray:none;stroke-opacity:1"
       d="m 2340.9343,441.70232 c -46.2562,0 -83.4951,37.23894 -83.4951,83.49517 v 353.63216 c 0,46.2562 37.2389,83.49464 83.4951,83.49464 h 481.2874 c 46.2563,0 83.4947,-37.23844 83.4947,-83.49464 V 525.19749 c 0,-46.25623 -37.2384,-83.49517 -83.4947,-83.49517 z m 59.7308,63.4261 h 361.8259 c 35.5932,0 64.2478,28.1655 64.2478,63.15117 v 267.46793 c 0,34.98566 -28.6546,63.15067 -64.2478,63.15067 h -361.8259 c -35.5932,0 -64.2478,-28.16501 -64.2478,-63.15067 V 568.27959 c 0,-34.98567 28.6546,-63.15117 64.2478,-63.15117 z" />
    <rect
       style="fill:#ffffff;fill-rule:evenodd;stroke:#299345;stroke-width:20;stroke-miterlimit:4;stroke-dasharray:none;stroke-opacity:1"
       id="rect3782"
       width="409.40494"
       height="219.95927"
       x="2376.8755"
       y="304.95325"
       ry="35.276066" />
    <rect
       style="fill:#299345;fill-opacity:1;fill-rule:evenodd;stroke-width:0.086934"
       id="rect3784"
       width="121.26836"
       height="34.327477"
       x="2520.9438"
       y="397.76913"
       ry="17.163738" />
    <rect
       style="fill:#299345;fill-opacity:1;fill-rule:evenodd;stroke-width:0.086934"
       id="rect3786"
       width="121.26836"
       height="34.327477"
       x="354.29868"
       y="-2598.7417"
       ry="17.163738"
       transform="rotate(90)" />
    <rect
       style="fill:#299345;fill-opacity:1;fill-rule:evenodd;stroke-width:0.264583"
       id="rect3788"
       width="83.211052"
       height="209.11485"
       x="2440.8167"
       y="595.01581"
       rx="41.586872"
       ry="53.996445" />
    <rect
       style="fill:#299345;fill-opacity:1;fill-rule:evenodd;stroke-width:0.264583"
       id="rect3790"
       width="83.211052"
       height="209.11485"
       x="2639.1282"
       y="599.8963"
       rx="41.586872"
       ry="53.996445" />
    <path
       id="path4064"
       style="fill:#299345;fill-opacity:1;fill-rule:evenodd;stroke:#299345;stroke-width:10;stroke-linejoin:round;stroke-miterlimit:4;stroke-dasharray:none;stroke-opacity:1"
       d="m 1635.8529,851.09892 c -46.2563,0 -83.4952,37.23894 -83.4952,83.49517 v 353.63221 c 0,46.2562 37.2389,83.4946 83.4952,83.4946 h 481.2874 c 46.2562,0 83.4946,-37.2384 83.4946,-83.4946 V 934.59409 c 0,-46.25623 -37.2384,-83.49517 -83.4946,-83.49517 z m 59.7307,63.4261 h 361.8259 c 35.5932,0 64.2478,28.1655 64.2478,63.15117 v 267.46791 c 0,34.9857 -28.6546,63.1507 -64.2478,63.1507 h -361.8259 c -35.5932,0 -64.2478,-28.165 -64.2478,-63.1507 V 977.67619 c 0,-34.98567 28.6546,-63.15117 64.2478,-63.15117 z" />
    <rect
       style="fill:#ffffff;fill-rule:evenodd;stroke:#299345;stroke-width:20;stroke-miterlimit:4;stroke-dasharray:none;stroke-opacity:1"
       id="rect4066"
       width="409.40494"
       height="219.95927"
       x="1671.7941"
       y="714.34985"
       ry="35.276066" />
    <rect
       style="fill:#299345;fill-opacity:1;fill-rule:evenodd;stroke-width:0.086934"
       id="rect4068"
       width="121.26836"
       height="34.327477"
       x="1815.8623"
       y="807.16571"
       ry="17.163738" />
    <rect
       style="fill:#299345;fill-opacity:1;fill-rule:evenodd;stroke-width:0.086934"
       id="rect4070"
       width="121.26836"
       height="34.327477"
       x="763.69525"
       y="-1893.6603"
       ry="17.163738"
       transform="rotate(90)" />
    <path
       style="fill:none;stroke:#299345;stroke-width:16.428;stroke-linecap:butt;stroke-linejoin:miter;stroke-miterlimit:4;stroke-dasharray:none;stroke-opacity:1"
       d="m 1740.6978,1148.3367 c 0,-47.0298 0,-94.0598 13.8689,-117.5748 13.8689,-23.5151 41.6054,-23.5151 55.4738,5e-4 13.8684,23.5155 13.8684,70.5445 13.8684,117.5743"
       id="path4072"
       inkscape:original-d="m 1740.6978,1148.3367 c 0,-47.0298 0,-94.0598 0,-141.0899 27.7378,0 55.4743,0 83.2111,0 0,47.0311 0,94.0601 0,141.0899"
       inkscape:path-effect="#path-effect4076" />
    <path
       style="fill:none;stroke:#299345;stroke-width:16.428;stroke-linecap:butt;stroke-linejoin:miter;stroke-miterlimit:4;stroke-dasharray:none;stroke-opacity:1"
       d="m 1929.0837,1152.2825 c 0,-47.0298 0,-94.0598 13.8689,-117.5749 13.8689,-23.5151 41.6054,-23.5151 55.4738,5e-4 13.8684,23.5155 13.8684,70.5446 13.8684,117.5744"
       id="path4078"
       inkscape:original-d="m 1929.0837,1152.2825 c 0,-47.0298 0,-94.0598 0,-141.09 27.7378,0 55.4743,0 83.2111,0 0,47.0311 0,94.0602 0,141.09"
       inkscape:path-effect="#path-effect4082" />
    <rect
       style="fill:#000000;fill-rule:evenodd;stroke:#59ff00;stroke-width:6.38247;stroke-miterlimit:4;stroke-dasharray:none;stroke-opacity:1"
       id="rect4086"
       width="312.94595"
       height="251.32237"
       x="1589.1046"
       y="289.40213"
       ry="40.305935"
       rx="41.005836"
       inkscape:export-filename="/home/raul6174/Pictures/FitBot-Saying.png"
       inkscape:export-xdpi="96"
       inkscape:export-ydpi="96" />
    <rect
       style="fill:#ffffff;fill-rule:evenodd;stroke:#000000;stroke-width:6.38247;stroke-miterlimit:4;stroke-dasharray:none;stroke-opacity:1"
       id="rect4088"
       width="261.30136"
       height="140.38829"
       x="1614.9269"
       y="161.64093"
       ry="22.514833"
       inkscape:export-filename="/home/raul6174/Pictures/FitBot-Saying.png"
       inkscape:export-xdpi="96"
       inkscape:export-ydpi="96" />
    <rect
       style="fill:#ff0000;fill-rule:evenodd;stroke-width:0.0554853"
       id="rect4090"
       width="77.399132"
       height="21.909399"
       x="1706.8779"
       y="220.88037"
       ry="10.9547"
       inkscape:export-filename="/home/raul6174/Pictures/FitBot-Saying.png"
       inkscape:export-xdpi="96"
       inkscape:export-ydpi="96" />
    <rect
       style="fill:#ff0000;fill-rule:evenodd;stroke-width:0.0554853"
       id="rect4092"
       width="77.399132"
       height="21.909399"
       x="193.1355"
       y="-1756.5323"
       ry="10.9547"
       transform="rotate(90)"
       inkscape:export-filename="/home/raul6174/Pictures/FitBot-Saying.png"
       inkscape:export-xdpi="96"
       inkscape:export-ydpi="96" />
    <path
       id="path4094"
       style="fill:#59ff00;fill-opacity:1;fill-rule:evenodd;stroke:#59ff00;stroke-width:1.27649;stroke-linecap:round;stroke-linejoin:round;stroke-miterlimit:4;stroke-dasharray:none;stroke-opacity:1;paint-order:normal"
       d="m 1682.2797,346.77235 c -14.7046,0 -26.5425,15.37068 -26.5425,34.46322 v 59.81178 c 0,-19.09253 11.8379,-34.46289 26.5425,-34.46289 h 0.024 c 14.7046,0 26.5428,15.37036 26.5428,34.46289 v -59.81178 c 0,-19.09254 -11.8382,-34.46322 -26.5428,-34.46322 z"
       inkscape:export-filename="/home/raul6174/Pictures/FitBot-Saying.png"
       inkscape:export-xdpi="96"
       inkscape:export-ydpi="96" />
    <path
       id="path4096"
       style="fill:#59ff00;fill-opacity:1;fill-rule:evenodd;stroke:#59ff00;stroke-width:1.27649;stroke-linecap:round;stroke-linejoin:round;stroke-miterlimit:4;stroke-dasharray:none;stroke-opacity:1"
       d="m 1808.8517,349.8872 c -14.7047,0 -26.5429,15.37068 -26.5429,34.46321 v 59.81213 c 0,-19.09255 11.8382,-34.46323 26.5429,-34.46323 h 0.024 c 14.7046,0 26.5425,15.37068 26.5425,34.46323 v -59.81213 c 0,-19.09253 -11.8379,-34.46321 -26.5425,-34.46321 z"
       inkscape:export-filename="/home/raul6174/Pictures/FitBot-Saying.png"
       inkscape:export-xdpi="96"
       inkscape:export-ydpi="96" />
    <path
       id="rect6830"
       style="fill:#299345;fill-opacity:1;fill-rule:evenodd;stroke:#299345;stroke-width:1.39052;stroke-opacity:1"
       d="m 458.75712,-276.35548 c -17.93726,-0.15044 -35.87523,6.88898 -49.08319,20.93524 l -18.0238,19.168 -22.8722,-21.50834 c -26.44002,-24.86204 -67.39861,-23.27412 -91.8343,3.56044 -24.43569,26.83454 -22.82169,68.45193 3.61834,93.31397 0,0 85.63832,76.167057 96.39915,78.656917 23.24047,6.66415 129.58922,-84.975027 129.58922,-84.975027 24.86204,-26.44002 23.27412,-67.39662 -3.56043,-91.8323 -12.5787,-11.45423 -28.40578,-17.18615 -44.23279,-17.3189 z"
       sodipodi:nodetypes="scccscccss" />
    <path
       id="path7522"
       style="fill:#299345;fill-opacity:1;fill-rule:evenodd;stroke:#ffffff;stroke-width:18.9897;stroke-miterlimit:4;stroke-dasharray:none;stroke-opacity:1"
       d="m 886.62137,1232.1541 c -17.0312,-0.1428 -34.06302,6.541 -46.60382,19.8777 l -17.1133,18.1997 -21.7168,-20.4218 c -25.1044,-23.6061 -63.994,-22.0984 -87.1953,3.3806 -23.2013,25.479 -21.6688,64.994 3.4356,88.6002 0,0 81.3123,72.3194 91.5295,74.6835 22.0665,6.3275 123.04302,-80.6825 123.04302,-80.6825 23.6061,-25.1044 22.0984,-63.992 -3.3806,-87.1933 -11.9433,-10.8757 -26.9708,-16.318 -41.9983,-16.4441 z"
       sodipodi:nodetypes="scccscccss" />
    <rect
       style="fill:#299345;fill-opacity:1;fill-rule:evenodd;stroke:#59ff00;stroke-width:0;stroke-miterlimit:4;stroke-dasharray:none;stroke-opacity:1"
       id="rect7834"
       width="475.70377"
       height="382.03082"
       x="129.47705"
       y="552.3551"
       ry="61.26836"
       rx="62.332264"
       inkscape:export-filename="/home/raul6174/Pictures/FitBot-Saying.png"
       inkscape:export-xdpi="96"
       inkscape:export-ydpi="96" />
    <path
       id="path7836"
       style="fill:#ffffff;fill-opacity:1;fill-rule:evenodd;stroke:#299345;stroke-width:9.15331;stroke-linejoin:round;stroke-miterlimit:4;stroke-dasharray:none;stroke-opacity:1"
       d="m 147.06059,503.63733 c -42.33972,0 -76.425653,34.08593 -76.425653,76.42568 v 323.69027 c 0,42.3397 34.085933,76.42518 76.425653,76.42518 h 440.53703 c 42.33972,0 76.4252,-34.08548 76.4252,-76.42518 V 580.06301 c 0,-42.33975 -34.08548,-76.42568 -76.4252,-76.42568 z m 54.67335,58.05585 h 331.19033 c 32.57953,0 58.80792,25.78073 58.80792,57.80418 v 244.82153 c 0,32.02344 -26.22839,57.80373 -58.80792,57.80373 H 201.73394 c -32.57951,0 -58.80793,-25.78029 -58.80793,-57.80373 V 619.49736 c 0,-32.02345 26.22842,-57.80418 58.80793,-57.80418 z" />
    <rect
       style="fill:#299345;fill-opacity:1;fill-rule:evenodd;stroke:#ffffff;stroke-width:18.3067;stroke-miterlimit:4;stroke-dasharray:none;stroke-opacity:1"
       id="rect7838"
       width="374.74078"
       height="201.33543"
       x="179.95862"
       y="378.46667"
       ry="32.289257" />
    <rect
       style="fill:#ffffff;fill-opacity:1;fill-rule:evenodd;stroke-width:0.0795734"
       id="rect7840"
       width="111.00062"
       height="31.420984"
       x="311.8287"
       y="463.42392"
       ry="15.710492" />
    <rect
       style="fill:#ffffff;fill-opacity:1;fill-rule:evenodd;stroke-width:0.0795734"
       id="rect7842"
       width="111.00062"
       height="31.420984"
       x="423.63412"
       y="-383.03961"
       ry="15.710492"
       transform="rotate(90)" />
    <path
       style="fill:none;fill-opacity:1;stroke:#ffffff;stroke-width:15.0371;stroke-linecap:butt;stroke-linejoin:miter;stroke-miterlimit:4;stroke-dasharray:none;stroke-opacity:1"
       d="m 243.02839,775.70811 c 0,-43.04778 0,-86.09575 12.69463,-107.61982 12.69463,-21.52407 38.08269,-21.52407 50.77685,4.2e-4 12.69417,21.5245 12.69417,64.57162 12.69417,107.6194"
       id="path7844"
       inkscape:original-d="m 243.02839,775.70811 c 0,-43.04778 0,-86.09575 0,-129.14389 25.38926,0 50.77732,0 76.16565,0 0,43.04899 0,86.09611 0,129.14389"
       inkscape:path-effect="#path-effect7848" />
    <path
       style="fill:none;fill-opacity:1;stroke:#ffffff;stroke-width:15.0371;stroke-linecap:butt;stroke-linejoin:miter;stroke-miterlimit:4;stroke-dasharray:none;stroke-opacity:1"
       d="m 415.46371,779.31979 c 0,-43.0478 0,-86.09577 12.69463,-107.61983 12.69463,-21.52406 38.08269,-21.52406 50.77686,4.2e-4 12.69417,21.52449 12.69417,64.57161 12.69417,107.61941"
       id="path7852"
       inkscape:original-d="m 415.46371,779.31979 c 0,-43.0478 0,-86.09577 0,-129.14389 25.38926,0 50.77732,0 76.16566,0 0,43.04897 0,86.09609 0,129.14389"
       inkscape:path-effect="#path-effect7856" />
    <rect
       style="fill:#ffffff;fill-opacity:1;fill-rule:evenodd;stroke-width:0.240003"
       id="rect8406"
       width="75.480606"
       height="189.68773"
       x="-736.76178"
       y="1404.1699"
       rx="37.723381"
       ry="48.980083" />
    <rect
       style="fill:#ffffff;fill-opacity:1;fill-rule:evenodd;stroke-width:0.240003"
       id="rect8408"
       width="75.480606"
       height="189.68773"
       x="-556.87372"
       y="1408.597"
       rx="37.723381"
       ry="48.980083" />
    <rect
       style="fill:#bec8b7;fill-opacity:1;fill-rule:evenodd;stroke-width:0.264583"
       id="rect8732"
       width="703.5379"
       height="703.5379"
       x="-1762.1777"
       y="-731.96387"
       rx="41.586945"
       ry="53.996429" />
    <path
       id="path8708"
       style="fill:#299345;fill-opacity:1;fill-rule:evenodd;stroke:#ffffff;stroke-width:23.1545;stroke-linejoin:round;stroke-miterlimit:4;stroke-dasharray:none;stroke-opacity:1;paint-order:stroke fill markers"
       d="m -337.1642,1111.4232 a 77.619216,77.619216 0 0 0 -100.81112,43.4066 77.619216,77.619216 0 0 0 8.29158,72.8388 l -18.48447,46.3691 c -4.19195,10.5157 0.89903,22.3562 11.41481,26.5482 l 41.82084,16.6713 c 10.51582,4.192 22.35633,-0.899 26.54824,-11.4147 l 18.48469,-46.3697 a 77.619216,77.619216 0 0 0 56.13885,-47.188 l -72.10137,-28.7423 72.12495,28.6831 a 77.619216,77.619216 0 0 0 -43.427,-100.8024 z m -101.85878,193.0393 c -2.22683,-0.8877 -4.7343,0.1903 -5.62195,2.4171 -0.88771,2.2268 0.19044,4.7343 2.41726,5.622 l 43.07087,17.1697 c 2.22682,0.8877 4.73441,-0.1905 5.62208,-2.4173 0.88762,-2.2268 -0.19055,-4.7341 -2.4174,-5.6218 z m -1.97801,13.0761 c -1.71794,-0.6849 -3.65229,0.1468 -4.33713,1.8648 l -2.48205,6.2263 c -0.68491,1.718 0.14685,3.6523 1.8648,4.3371 l 37.48857,14.9444 c 1.71792,0.6849 3.65255,-0.1468 4.33739,-1.8647 l 2.48205,-6.2264 c 0.68481,-1.7179 -0.1471,-3.6523 -1.86505,-4.3372 z" />
    <rect
       style="fill:#ffffff;fill-opacity:1;fill-rule:evenodd;stroke-width:0.264583"
       id="rect9368"
       width="9.123539"
       height="30.841331"
       x="-944.34796"
       y="685.07111"
       ry="4.5617695"
       inkscape:transform-center-x="54.534188"
       inkscape:transform-center-y="-90.873911"
       transform="rotate(-32.15048)" />
    <rect
       style="fill:#ffffff;fill-opacity:1;fill-rule:evenodd;stroke-width:0.264583"
       id="rect9751"
       width="9.123539"
       height="30.841331"
       x="-360.82074"
       y="1065.7145"
       ry="4.5617695"
       inkscape:transform-center-x="-3.0739874"
       inkscape:transform-center-y="-105.93675"
       transform="rotate(0.47991046)" />
    <rect
       style="fill:#ffffff;fill-opacity:1;fill-rule:evenodd;stroke-width:0.264583"
       id="rect9753"
       width="9.123539"
       height="30.841331"
       x="477.3952"
       y="1022.0782"
       ry="4.5617695"
       inkscape:transform-center-x="-69.844661"
       inkscape:transform-center-y="-79.710566"
       transform="rotate(40.043595)" />
    <rect
       style="fill:#ffffff;fill-opacity:1;fill-rule:evenodd;stroke-width:0.264583"
       id="rect9755"
       width="9.123539"
       height="30.841331"
       x="1017.6173"
       y="583.80859"
       ry="4.5617695"
       inkscape:transform-center-x="-101.77594"
       inkscape:transform-center-y="-29.558606"
       transform="rotate(72.623055)" />
  </g>
</svg>
